<svg xmlns="http://www.w3.org/2000/svg" viewBox="0 0 366.7 169.5"><defs><style>.cls-1,.cls-5{fill:#fab814;}.cls-2,.cls-3{fill:#6f6f6f;}.cls-3{font-size:53.83px;}.cls-3,.cls-5{font-family:NasalizationRg-Regular, Nasalization;}.cls-4{letter-spacing:-0.02em;}.cls-5{font-size:55.99px;}</style></defs><title>villacasas-logo</title><g id="Capa_2" data-name="Capa 2"><g id="Layer_1" data-name="Layer 1"><path class="cls-1" d="M0,129l36-28V57H64V71l72-60,35,27V14.4A14.4,14.4,0,0,0,156.6,0H15.72A15.72,15.72,0,0,0,0,15.72Z"/><path class="cls-2" d="M134.5,36.5l-129,118,6.44,7.43a21.94,21.94,0,0,0,16.58,7.57H143.08a28.41,28.41,0,0,0,28.42-28.42V64.5Zm-8,112h-19v-19h19Zm1-37h-19v-19h19Zm34,38h-19v-19h19Zm0-39h-19v-19h19Z"/><text class="cls-3" transform="translate(187.56 82.08) scale(0.91 1)">VI<tspan class="cls-4" x="57.33" y="0">L</tspan><tspan x="89.85" y="0">LA</tspan></text><text class="cls-5" transform="translate(187.56 136.22) scale(0.88 1)">CASAS</text></g></g></svg>