<svg xmlns="http://www.w3.org/2000/svg" width="534" height="150.049" viewBox="0 0 534 150.049"><rect width="534" height="72" fill="#295e56"/><text transform="translate(109.35 46.94)" fill="#fff" font-size="36" font-family="Smoolthan-Bold, Smoolthan" font-weight="700"><tspan x="0" y="0">saito</tspan></text><circle cx="23" cy="23" r="23" transform="translate(54 12)" fill="#fff"/><path d="M91.88,29.43a.16.16,0,0,0,0-.09.53.53,0,0,1,0-.12c-.09-.29-.19-.57-.31-.86h0a7.831,7.831,0,0,0-.45-.92,6.189,6.189,0,0,0-.57-.84c-.1-.14-.21-.27-.32-.4S90,26.05,90,26l-.15-.15a7.22,7.22,0,0,0-1.24-1c-.12-.07-.23-.15-.35-.21l-.45-.25-.48-.23-.48-.18-.49-.16-.44-.11h-.16l-.45-.08a7.64,7.64,0,0,0-1.08-.07H74.51a.55.55,0,0,1-.43-.9,14.32,14.32,0,0,1,5-4,.53.53,0,0,0-.09-1,13.9,13.9,0,0,0-3.18-.36A14.16,14.16,0,0,0,61.6,31c0,.14,0,.29,0,.43v6.74a7.86,7.86,0,0,0,1.36,4.43h0l.28.38a7.12,7.12,0,0,0,.62.72l.35.35.48.4c.11.09.23.17.35.25a.71.71,0,0,0,.14.1l.35.22.45.25a4.31,4.31,0,0,0,.49.22l.47.19.49.16.44.1L68,46l.41.07a8.05,8.05,0,0,0,1.11.08h9.72a.55.55,0,0,1,.43.9,14.29,14.29,0,0,1-5.05,4,.53.53,0,0,0,.09,1,13.93,13.93,0,0,0,3.19.37A14.18,14.18,0,0,0,92.12,38.6V31.44A7.86,7.86,0,0,0,91.88,29.43ZM88,37.52a4.69,4.69,0,0,1-4.68,4.67H70.42a4.68,4.68,0,0,1-4.66-4.68V32.05a4.68,4.68,0,0,1,4.68-4.67h12.9A4.69,4.69,0,0,1,88,32.09Z" fill="#f93549"/><circle cx="1.98" cy="1.98" r="1.98" transform="translate(70.49 32.8)" fill="#f93549"/><circle cx="1.98" cy="1.98" r="1.98" transform="translate(79.1 32.81)" fill="#f93549"/><path d="M92.66,29.14v-.17c-.08-.26-.17-.51-.27-.77l-.13-.32L92,27.53l-.27-.5a8,8,0,0,0-.63-.93c-.11-.15-.23-.3-.33-.41a2,2,0,0,0-.22-.25l-.2-.2A7.91,7.91,0,0,0,89,24.1l-.36-.23-.42-.23h-.09a4.431,4.431,0,0,0-.54-.26l-.52-.2L86.53,23a2.62,2.62,0,0,0-.41-.1l-.23-.06-.51-.09a9.51,9.51,0,0,0-1.19-.08H75.06a13.27,13.27,0,0,1,4.37-3.28A1.38,1.38,0,0,0,80.21,18a1.33,1.33,0,0,0-1-1.17,15.14,15.14,0,0,0-3.37-.38,14.93,14.93,0,0,0-15,14.51c0,.16,0,.33,0,.48v6.73a8.67,8.67,0,0,0,1.36,4.69l.15.24.29.39a7.579,7.579,0,0,0,.76.88l.33.32c.17.14.35.3.5.41a2.851,2.851,0,0,0,.33.25h0l.21.15.39.24c.16.09.31.18.48.26a4.43,4.43,0,0,0,.54.26l.52.2a5.311,5.311,0,0,0,.55.17l.44.11a.87.87,0,0,0,.23,0l.45.08a8.35,8.35,0,0,0,1.22.09h9.14a13.7,13.7,0,0,1-4.38,3.28,1.38,1.38,0,0,0-.78,1.39,1.32,1.32,0,0,0,1,1.16,14.58,14.58,0,0,0,3.37.39,14.93,14.93,0,0,0,15-14.51V31.4a8.889,8.889,0,0,0-.28-2.26Zm-.54,9v.43A14.18,14.18,0,0,1,77.91,52.34,13.93,13.93,0,0,1,74.72,52a.53.53,0,0,1-.09-1,14.29,14.29,0,0,0,5.05-4,.55.55,0,0,0-.43-.9H69.53a8.05,8.05,0,0,1-1.11-.1h-.59l-.44-.1-.49-.16-.47-.19a4.309,4.309,0,0,1-.49-.22L65.5,45l-.35-.22a.71.71,0,0,1-.14-.1c-.12-.08-.24-.16-.35-.25l-.48-.4-.35-.35a7.119,7.119,0,0,1-.62-.72l-.28-.38h0a7.86,7.86,0,0,1-1.36-4.43V30.98A14.16,14.16,0,0,1,75.81,17.23a13.9,13.9,0,0,1,3.18.36.53.53,0,0,1,.09,1,14.32,14.32,0,0,0-5,4,.55.55,0,0,0,.43.9h9.72a7.64,7.64,0,0,1,1.08.07l.45.08h.16l.44.11.49.16.48.18.48.23.45.25c.12.06.23.14.35.21a7.22,7.22,0,0,1,1.24,1L90,26c.07.08.15.15.21.23s.22.26.32.4a6.19,6.19,0,0,1,.57.84,7.83,7.83,0,0,1,.45.92h0c.12.29.22.57.31.86a.53.53,0,0,0,0,.12.16.16,0,0,1,0,.09,7.861,7.861,0,0,1,.26,2Z" fill="#f93549"/><path d="M23.73,48.58a37.8,37.8,0,0,0-3.55-5.37c-1.16-1.45-4.4-3.57-5.1-5.1-.55-1.18.13-1.5,1.17-2.71s2-2.24,3-3.36l6.09-6.71c1.3-1.43-.82-3.55-2.12-2.12L15.3,31.93c-1.25,1.4-3.7,3.16-4,5.17s1,2.44,2.24,3.62a37.07,37.07,0,0,1,7.57,9.37c.94,1.69,3.53.18,2.59-1.51Z" fill="#fff"/><path d="M15.3,39.05l22.9-.48a1.5,1.5,0,0,0,0-3l-22.9.48a1.5,1.5,0,0,0,0,3Z" fill="#fff"/><circle cx="12" cy="12" r="12" transform="translate(207 24)" fill="#5db436"/><path d="M212.88,38.94a49.048,49.048,0,0,1,3.8,3.69,1.5,1.5,0,0,0,2.12,0,92.46,92.46,0,0,0,7.1-9.27c1.08-1.61-1.52-3.12-2.59-1.52a84.559,84.559,0,0,1-6.63,8.67h2.12a48.869,48.869,0,0,0-3.8-3.69c-1.46-1.26-3.59.86-2.13,2.12Z" fill="#fff"/><line y1="39" x2="32" transform="translate(188 56)" fill="none"/><path d="M218.85,56.93A13.119,13.119,0,0,0,220,55.24a1.5,1.5,0,1,0-2.59-1.52c-.13.22-.26.44-.4.65s-.21.31-.31.44a1.54,1.54,0,0,0,0,2.12,1.51,1.51,0,0,0,2.12,0Z" fill="#418b77"/><line y1="48.13" x2="36.8" transform="translate(183.5 57.76)" fill="none" stroke="#418b77" stroke-miterlimit="10" stroke-width="9"/><line x2="40.02" y2="43.52" transform="translate(218.27 58.14)" fill="none" stroke="#418b77" stroke-miterlimit="10" stroke-width="9"/><line x1="1" y2="91.02" transform="translate(218.5 58.98)" fill="none" stroke="#418b77" stroke-miterlimit="10" stroke-width="9"/><path d="M221.61,55c-.38-.25-.75-.5-1.11-.78-.15-.1-.22-.16-.35-.26l-.28-.23h0l.2.76v-.08l-.44,1.06v-.05l-1.46.39c-.29-.07,0,0,.15.09l.13.09c-.07-.06-.06-.06,0,0a2.44,2.44,0,0,1,.29.27s.3.34.19.2a1.54,1.54,0,0,0,2,.53,1.51,1.51,0,0,0,.54-2,6.21,6.21,0,0,0-1.71-1.64c-.91-.57-2.19-.64-2.68.52-.43,1,.24,1.77,1,2.35a21.693,21.693,0,0,0,1.92,1.4,1.52,1.52,0,0,0,2.06-.53,1.55,1.55,0,0,0-.54-2.06Z" fill="#418b77"/><path d="M220,55.67v-.53a1.514,1.514,0,0,0-2.56-1.06l-.83,1,2.51,1.46c-.07.16.13-.24.16-.29s.06-.09,0,0a2.279,2.279,0,0,1,.22-.22,1.5,1.5,0,1,0-2.12-2.12,4.88,4.88,0,0,0-1.16,1.84,1.51,1.51,0,0,0,2.51,1.46l.83-1L217,55.14v.53a1.5,1.5,0,1,0,3,0Z" fill="#418b77"/><path d="M501,24.93c4.83,0,4.83-7.5,0-7.5S496.17,24.93,501,24.93Z" fill="#fff"/><path d="M501.24,38.36c4.82,0,4.83-7.5,0-7.5S496.4,38.36,501.24,38.36Z" fill="#fff"/><path d="M501.24,51.8c4.82,0,4.83-7.5,0-7.5S496.4,51.8,501.24,51.8Z" fill="#fff"/><path d="M448.93,24.22C447.43,38,457.5,49.5,473.5,49.5" fill="none" stroke="#fff" stroke-miterlimit="10" stroke-width="2.5"/><line x2="7" transform="translate(449 25)" fill="none" stroke="#fff" stroke-miterlimit="10" stroke-width="2"/><line y1="5" transform="translate(456 26)" fill="none" stroke="#fff" stroke-miterlimit="10" stroke-width="2"/><line y1="3" x2="2" transform="translate(454 31)" fill="none" stroke="#fff" stroke-miterlimit="10" stroke-width="2"/><line y1="1" transform="translate(456 30)" fill="none" stroke="#fff" stroke-miterlimit="10" stroke-width="2"/><line x2="6" transform="translate(467 42)" fill="none" stroke="#fff" stroke-miterlimit="10" stroke-width="2"/><path d="M473,50.63V41" fill="none" stroke="#fff" stroke-miterlimit="10" stroke-width="2"/><path d="M455.13,36.46c-1.26-2.88,2-5.95.63-9-.91-2.07-3.34-1.84-5.22-1.77a1.507,1.507,0,0,0-1.45,1.9,15.909,15.909,0,0,1,1.26,6.05,1.5,1.5,0,1,0,3,0,22.439,22.439,0,0,1,.75-4.15,1.5,1.5,0,0,0-2.89-.8,26.864,26.864,0,0,0-.86,4.95h3A18.509,18.509,0,0,0,452,26.83l-1.45,1.9c.46,0,2-.3,2.4,0s-.07,1.92-.26,2.55c-.71,2.43-1.19,4.28-.14,6.69.78,1.77,3.36.24,2.59-1.51Z" fill="#fff"/><path d="M473.27,47.49c0-3.66-6.28-7.43-8.53-3.49-1.24,2.16.66,4.06,2.71,4.59,3.29.87,5-1.58,5.05-4.59a1.52,1.52,0,0,0-2.56-1.06c-2.69,2.39-6.54.26-9.38-.8-1.81-.68-2.6,2.22-.8,2.89,4.18,1.57,8.52,3.39,12.3,0L469.5,44c0,.41-.05,1.53-.42,1.74a15.34,15.34,0,0,1-1.62-.13c-.09,0-.37-.09.2-.13,1.18-.08,2.6.77,2.61,2a1.5,1.5,0,0,0,3,0Z" fill="#fff"/><path d="M455.53,27.5a.48.48,0,0,1-.24.58,1.55,1.55,0,0,0,.54-2,1.53,1.53,0,0,0-2.06-.54,2.68,2.68,0,0,0-1.14,2.81,1.52,1.52,0,0,0,1.85,1.05,1.55,1.55,0,0,0,1-1.85Z" fill="#fff"/><path d="M449.08,24a6.372,6.372,0,0,0-1.07,0,.38.38,0,0,0,0,.75l1,.08a.375.375,0,0,0,0-.75L448,24v.75a6.372,6.372,0,0,0,1.07,0c.36-.06.48-.77,0-.75Z" fill="#fff"/><path d="M455.69,24.57a6.371,6.371,0,0,1,.52,1.58l.17-.42v-.45l-.69.19c0,.1.21.58.15.7s-.34.15-.41.19l-1.06.58a.38.38,0,0,0,.38.65l1.06-.58a1.83,1.83,0,0,0,.71-.48,1.756,1.756,0,0,0-.19-1.44.374.374,0,0,0-.7.19c.01.36-.05.82.22,1.09a.78.78,0,0,0,.94,0,.41.41,0,0,0,.17-.43,7,7,0,0,0-.59-1.76c-.21-.43-.86-.05-.65.38Z" fill="#fff"/><path d="M456,31.35c.37,0,.77.35,1-.18l-.74-.1c0,.23-.33.44-.48.58-.36.32.17.85.53.53s.73-.6.7-1.11a.37.37,0,0,0-.73-.1h0l.26-.26c.21-.09-.41-.14-.49-.14-.48,0-.48.77,0,.75Z" fill="#fff"/><path d="M457,26a1.86,1.86,0,0,0-.33-.78c-.29-.38-.94,0-.65.38a1.28,1.28,0,0,1,.25.6c.09.47.81.27.73-.2Z" fill="#fff"/><path d="M452.14,35.67V35a.38.38,0,0,0-.75,0v.68a.38.38,0,0,0,.75,0Z" fill="#fff"/><path d="M473.54,50.76h.17c.27.1.39-.34.12-.43a.48.48,0,0,0-.29,0c-.29,0-.29.47,0,.45Z" fill="#fff"/><path d="M465.14,45.51c-2.33,0-4.14-1.93-5.81-3.32s-3.34-2.71-4.15-4.71c-.72-1.76-3.62-1-2.89.8,1.14,2.81,3.2,4.62,5.5,6.51s4.33,3.75,7.35,3.72a1.5,1.5,0,1,0,0-3Z" fill="#fff"/><path d="M466.26,42.81V42.2a4,4,0,0,1-.94,1.3c-.2.19.22-.06-.09,0l-.48.13-1.08.27c-1.87.48-1.08,3.38.79,2.9,1.2-.31,2.39-.45,3.2-1.47s1.7-1.89,1.47-3.33a1.53,1.53,0,0,0-1.85-1,1.55,1.55,0,0,0-1.05,1.85Z" fill="#fff"/><path d="M459.59,42.26c-2.69-1.43-4.89-5.33-5.22-8.28-.21-1.9-3.21-1.92-3,0,.45,4,3,8.91,6.71,10.87C459.78,45.76,461.3,43.17,459.59,42.26Z" fill="#fff"/><path d="M460.35,42.42a4.28,4.28,0,0,1-2.18-.89,1.55,1.55,0,0,0-2.12,0,1.5,1.5,0,0,0,0,2.12,7,7,0,0,0,3.5,1.66,1.56,1.56,0,0,0,1.85-1.05,1.51,1.51,0,0,0-1-1.84Z" fill="#fff"/><path d="M466.72,41.56a8.53,8.53,0,0,0-1.6,2.17,1.54,1.54,0,0,0,.54,2.06,1.52,1.52,0,0,0,2-.54,5.2,5.2,0,0,1,1.14-1.57,1.5,1.5,0,1,0-2.13-2.12Z" fill="#fff"/><line y2="17" transform="translate(396.5 30.5)" fill="none" stroke="#fff" stroke-miterlimit="10" stroke-width="1"/><line x1="20.5" transform="translate(396 30.5)" fill="none" stroke="#fff" stroke-miterlimit="10" stroke-width="1"/><line x1="20.5" transform="translate(396 47.5)" fill="none" stroke="#fff" stroke-miterlimit="10" stroke-width="1"/><line y1="17" transform="translate(416.5 30.5)" fill="none" stroke="#fff" stroke-miterlimit="10" stroke-width="1"/><line y1="6" x2="7" transform="translate(416.5 31.5)" fill="none" stroke="#fff" stroke-miterlimit="10" stroke-width="1"/><line x2="7" y2="5" transform="translate(416.5 41.5)" fill="none" stroke="#fff" stroke-miterlimit="10" stroke-width="1"/><line y2="15" transform="translate(423.5 31.5)" fill="none" stroke="#fff" stroke-miterlimit="10" stroke-width="1"/><path d="M406.21,46.58c9.65,0,9.67-15,0-15S396.54,46.58,406.21,46.58Z" fill="#fff"/><path d="M410.11,42.71c7.72,0,7.73-12,0-12S402.37,42.71,410.11,42.71Z" fill="#fff"/><path d="M410.69,47.47c7.72,0,7.73-12,0-12S402.95,47.47,410.69,47.47Z" fill="#fff"/><path d="M402.46,47.62c7.72,0,7.73-12,0-12S394.72,47.62,402.46,47.62Z" fill="#fff"/><path d="M402.53,42.56c7.72,0,7.73-12,0-12S394.79,42.56,402.53,42.56Z" fill="#fff"/><path d="M405.92,42.42c7.72,0,7.73-12,0-12S398.19,42.42,405.92,42.42Z" fill="#fff"/><path d="M402.24,45.74c7.72,0,7.73-12,0-12S394.5,45.74,402.24,45.74Z" fill="#fff"/><path d="M406.71,47.47c7.73,0,7.74-12,0-12S398.98,47.47,406.71,47.47Z" fill="#fff"/><path d="M410.33,43c7.72,0,7.73-12,0-12S402.59,43,410.33,43Z" fill="#fff"/><path d="M410.76,45.45c7.72,0,7.73-12,0-12S403.02,45.45,410.76,45.45Z" fill="#fff"/><path d="M410,44.51c7.72,0,7.73-12,0-12S402.26,44.51,410,44.51Z" fill="#fff"/><path d="M407.8,44.58c7.72,0,7.73-12,0-12S400.06,44.58,407.8,44.58Z" fill="#fff"/><path d="M419.21,42.31c3.86,0,3.86-6,0-6S415.34,42.31,419.21,42.31Z" fill="#fff"/><path d="M420.22,40.86c3.86,0,3.86-6,0-6S416.35,40.86,420.22,40.86Z" fill="#fff"/><path d="M420.65,40.28c3.86,0,3.87-6,0-6S416.78,40.28,420.65,40.28Z" fill="#fff"/><path d="M420.58,43.39c3.86,0,3.86-6,0-6S416.71,43.39,420.58,43.39Z" fill="#fff"/><path d="M420.72,44.25c3.86,0,3.87-6,0-6S416.85,44.25,420.72,44.25Z" fill="#fff"/><path d="M422,35.88a1.13,1.13,0,1,0-1.024-1.125A1.13,1.13,0,0,0,422,35.88Z" fill="#fff"/><path d="M422.31,34.94a1.13,1.13,0,1,0-1.024-1.125,1.13,1.13,0,0,0,1.024,1.125Z" fill="#fff"/><path d="M422.53,34.58a1.13,1.13,0,1,0-1.024-1.125A1.13,1.13,0,0,0,422.53,34.58Z" fill="#fff"/><path d="M422.53,36.31a1.13,1.13,0,1,0-1.024-1.125A1.13,1.13,0,0,0,422.53,36.31Z" fill="#fff"/><path d="M420.88,44.14a11.4,11.4,0,0,0,.6,1.08c.78,1.22,2.72.09,1.95-1.14a11.235,11.235,0,0,1-.6-1.07,1.127,1.127,0,1,0-1.95,1.13Z" fill="#fff"/><path d="M413.14,47l1.86.28a1.15,1.15,0,0,0,1.43-1.08V44.29a1.13,1.13,0,0,0-2.25,0v1.89l1.42-1.08-1.86-.29a1.126,1.126,0,1,0-.6,2.17Z" fill="#fff"/><path d="M416.5,35.05v-2a2.78,2.78,0,0,0-.45-1.87,1.94,1.94,0,0,0-1.67-.59h-2.11a1.13,1.13,0,0,0,0,2.25h2.33l-.41-.4c.18.27.06.8.06,1.12v1.49a1.13,1.13,0,0,0,2.25,0Z" fill="#fff"/><path d="M396.65,31.8l-.07,2.14a1.13,1.13,0,0,0,2.21.3c.07-.28.2-1.27.6-1.13a1.14,1.14,0,0,0,1.38-.79V32.2l-.51.68.1-.08-.57.16h.12l-.57-.15.1.06-.23-1.77-.11.1.8-.33h-.15l.79.33-.1-.12.33.8v-.15a1.13,1.13,0,0,0-2.21-.3,32.992,32.992,0,0,0-.76,3.55,1.17,1.17,0,0,0,.79,1.39,1.14,1.14,0,0,0,1.38-.79,33,33,0,0,1,.76-3.55l-2.21-.3a1.32,1.32,0,0,0,2.28,1,1.13,1.13,0,0,0-.23-1.76,1.33,1.33,0,0,0-2,.81l1.38-.78c-1.87-.64-3,1.15-3.36,2.7l2.21.3.07-2.14a1.13,1.13,0,0,0-2.25,0Z" fill="#fff"/><path d="M399.35,45.26a1.88,1.88,0,0,1-.53-.06.25.25,0,0,1-.15-.06c.21.48.31.58.29.28a3.26,3.26,0,0,0-.26-1.56,1.13,1.13,0,0,0-2.21.3v2.15a1.13,1.13,0,0,0,2.25,0V44.16l-2.21.3c.26.74,0,1.66.59,2.28a3,3,0,0,0,2.23.77,1.13,1.13,0,0,0,0-2.25Z" fill="#fff"/><path d="M415.72,32.81a1.13,1.13,0,1,0-1.024-1.125,1.13,1.13,0,0,0,1.024,1.125Z" fill="#fff"/><path d="M416.41,30.45h.26l-.15-.16v.09l.15-.16a.41.41,0,0,1-.22,0c-.26,0-.18.43.06.44h.26a.225.225,0,0,0,0-.45h-.26l.06.44c.32,0,.47-.17.38-.52a.22.22,0,0,0-.16-.15,1.22,1.22,0,0,0-.38,0,.23.23,0,0,0,0,.45Z" fill="#fff"/><path d="M424,31.58v-.53a.21.21,0,0,0-.11-.19c-.26-.13-.49.13-.67.3a.22.22,0,0,0,0,.35v.04c-.09.28.35.4.43.12s0-.2-.08-.33.1.08,0-.06a.31.31,0,0,0-.17-.15l.05.35a.25.25,0,0,0,.13-.23l-.12-.2v.53c0,.29.47.29.45,0Z" fill="#fff"/><path d="M423.19,46.83l.29.31a.22.22,0,0,0,.37-.1,2,2,0,0,0,.06-.6l-.38.16-.06.39.38-.1-.31-.27-.22.37.22.1c.22.18.54-.14.32-.32a.88.88,0,0,0-.42-.21c-.2,0-.4.21-.22.38l.31.27c.11.1.35.08.38-.1s.17-.63-.06-.83a.24.24,0,0,0-.39.16,1.3,1.3,0,0,1,0,.48l.38-.1-.29-.31c-.2-.21-.52.11-.32.32Z" fill="#fff"/><path d="M416.51,48a.71.71,0,0,1,.25,0,.23.23,0,0,0,.22-.23,1.68,1.68,0,0,0,0-.39.24.24,0,0,0-.22-.16,1,1,0,0,0-.3,0c-.29.06-.17.5.12.44a.57.57,0,0,1,.18,0l-.22-.17v.27l.23-.22a.71.71,0,0,0-.25,0,.23.23,0,0,0,0,.45Z" fill="#fff"/><path d="M423.18,43.28a.77.77,0,0,0,0-.37.23.23,0,0,0-.44.12v.25a.225.225,0,0,0,.45,0Z" fill="#fff"/></svg>