<svg xmlns="http://www.w3.org/2000/svg" viewBox="0 0 505.02 180.01"><defs><style>.cls-1{fill:#f93549;}.cls-2{fill:#00adbb;}</style></defs><title>machinelearning_new3-1</title><g id="Capa_2" data-name="Capa 2"><g id="Layer_1" data-name="Layer 1"><path class="cls-1" d="M58.75,54.85V61.6c0,3.48-1.74,5.23-5.23,5.23a12.7,12.7,0,0,1-3.26-.51q-11.55-4.21-20.63-4.21c-3.63,0-6.43.92-8.42,2.76A7.83,7.83,0,0,0,18.38,71c0,2.81,1.91,4.81,5.74,6l14.3,2.76Q48.95,81.71,54,85.92q6.9,5.67,6.9,16.49v.65a22.17,22.17,0,0,1-7.33,16.41q-8,7.47-21.35,7.48a55.73,55.73,0,0,1-29.19-7.7V112.5q0-5.23,5.3-5.23a13.92,13.92,0,0,1,3.19.44Q23.1,112,32.25,112a13.52,13.52,0,0,0,8.93-2.83,7.65,7.65,0,0,0,3.12-6.1q0-5-5.52-7.12Q37,95.3,24.48,93,14,91.08,9.16,87.45,1.75,81.85,1.75,71A22.06,22.06,0,0,1,8.58,54.63q7.62-7.56,21-7.55A55.16,55.16,0,0,1,58.75,54.85Z"/><path class="cls-1" d="M104.79,127Q69.93,127,69.93,87t37.4-39.93q37.32,0,37.32,39.93v39.07h-8.21a8,8,0,0,1-5.88-2.4,7.3,7.3,0,0,1-2.32-5.45Q121.7,126.95,104.79,127ZM128.24,87q0-12-4.14-17.93-4.86-7.05-16.77-7t-16.78,7Q86.35,75,86.34,87t3.92,18q4.72,7,16.49,7,16.55,0,21.49-14.16Z"/><path class="cls-1" d="M153.69,28.41a7.55,7.55,0,0,1,2.4-5.51,7.88,7.88,0,0,1,5.81-2.33h8.2V31.1a7.62,7.62,0,0,1-2.39,5.52,7.88,7.88,0,0,1-5.81,2.32h-8.21Z"/><path class="cls-1" d="M187.31,62.29a8,8,0,0,1-5.88-2.43,7.42,7.42,0,0,1-2.32-5.51V47h10.53V35A7.42,7.42,0,0,1,192,29.52a8,8,0,0,1,5.88-2.43h8.21V47h22.07a7.84,7.84,0,0,1,5.81,2.36,7.68,7.68,0,0,1,2.39,5.58v7.35H206.05V98.51q0,8.24,3.84,11,3.27,2.28,11.77,2.28a54.12,54.12,0,0,0,8.06-.66q8.13,0,8.13,6.47V125a74.91,74.91,0,0,1-16.19,2q-16,0-23.46-5.88-8.56-6.69-8.56-22.56V62.29Z"/><path class="cls-2" d="M286.22,45.84q-33.15,0-36.89,31.4a70.08,70.08,0,0,0-.49,8.55c0,1.9.08,3.72.21,5.49.83,11.91,4.58,20.74,11.2,26.41a2.22,2.22,0,0,1,.36,3.14,21.12,21.12,0,0,1-1.54,1.6,2.24,2.24,0,0,0,.46,3.52,26.73,26.73,0,0,0,14.05,4,27,27,0,0,0,14.09-4,2.2,2.2,0,0,1,1-.3q34.9-1.2,34.9-39.84Q323.56,45.89,286.22,45.84Zm16.77,58a13.14,13.14,0,0,1-2.6,2.81c-3.3,2.81-8,4.17-14.17,4.17-7.93,0-13.51-2.31-16.77-7a18.16,18.16,0,0,1-2.11-4,28.47,28.47,0,0,1-1.61-6.57,50.9,50.9,0,0,1-.49-7.39,49.88,49.88,0,0,1,.74-9,22.65,22.65,0,0,1,3.47-8.92c3.26-4.63,8.84-7,16.77-7s13.55,2.35,16.77,7c2.77,3.93,4.18,9.92,4.18,17.93S305.76,99.83,303,103.8Z"/><path class="cls-1" d="M153.69,55A7.52,7.52,0,0,1,156,49.45,7.89,7.89,0,0,1,161.9,47h8.2v71.7a7.53,7.53,0,0,1-2.32,5.56,7.92,7.92,0,0,1-5.88,2.44h-8.21Z"/><path class="cls-2" d="M0,172.57V146.64a2.13,2.13,0,0,1,.65-1.53,2.19,2.19,0,0,1,1.6-.63H4.08a3,3,0,0,1,3,2.1l8.14,21,8.15-21a3,3,0,0,1,3-2.1h1.82a2.16,2.16,0,0,1,1.6.63,2.1,2.1,0,0,1,.66,1.53v25.93H28.16a2.15,2.15,0,0,1-1.61-.64,2.06,2.06,0,0,1-.66-1.52v-19l-7.44,19.2a2.65,2.65,0,0,1-2.62,1.93H14.58A2.65,2.65,0,0,1,12,170.64l-7.45-19.2v19a2.09,2.09,0,0,1-.65,1.52,2.19,2.19,0,0,1-1.62.64Z"/><path class="cls-2" d="M43.69,172.8q-9.24,0-9.23-10.58t9.9-10.58q9.9,0,9.89,10.58v10.35H52.08a2.09,2.09,0,0,1-1.56-.64,1.93,1.93,0,0,1-.62-1.44Q48.18,172.8,43.69,172.8Zm6.21-10.58a8.31,8.31,0,0,0-1.09-4.75q-1.29-1.87-4.45-1.87t-4.44,1.87a8.14,8.14,0,0,0-1.12,4.75,8.7,8.7,0,0,0,1,4.77c.84,1.23,2.29,1.85,4.37,1.85q4.38,0,5.69-3.76Z"/><path class="cls-2" d="M75.53,170.76a15.66,15.66,0,0,1-8.2,2q-9.9,0-9.9-10.58t9.9-10.58a15.66,15.66,0,0,1,8.2,2v1.8a1.22,1.22,0,0,1-1.39,1.37,4.13,4.13,0,0,1-.86-.11,16.89,16.89,0,0,0-6-1.14q-3.15,0-4.44,1.87a10.63,10.63,0,0,0,0,9.5c.86,1.24,2.34,1.87,4.44,1.87a16.89,16.89,0,0,0,6-1.14,3.55,3.55,0,0,1,.86-.11A1.21,1.21,0,0,1,75.53,169Z"/><path class="cls-2" d="M96.23,172.57H94.06a2.09,2.09,0,0,1-1.56-.64,1.93,1.93,0,0,1-.62-1.44V159.14q0-3.54-3.71-3.54-4.36,0-5.7,3.73v11.16a1.92,1.92,0,0,1-.61,1.44,2.1,2.1,0,0,1-1.56.64H78.13v-28H80.3a2.09,2.09,0,0,1,1.54.62,2,2,0,0,1,.63,1.46v7.37q1.95-2.42,6.22-2.42,7.55,0,7.54,7.06Z"/><path class="cls-2" d="M100.58,146.69a2,2,0,0,1,.63-1.46,2.09,2.09,0,0,1,1.54-.62h2.17v2.79a2,2,0,0,1-.63,1.47,2.08,2.08,0,0,1-1.54.61h-2.17Zm0,7.26a1.94,1.94,0,0,1,.61-1.45,2.13,2.13,0,0,1,1.56-.63h2.17v18.62a1.92,1.92,0,0,1-.61,1.44,2.09,2.09,0,0,1-1.56.64h-2.17Z"/><path class="cls-2" d="M126.91,172.57h-2.17a2.09,2.09,0,0,1-1.56-.64,1.92,1.92,0,0,1-.61-1.44V159.14q0-3.54-3.72-3.54-4.36,0-5.69,3.75v11.14a1.93,1.93,0,0,1-.62,1.44,2.09,2.09,0,0,1-1.56.64h-2.17v-20.7H111a2.12,2.12,0,0,1,1.56.63,2,2,0,0,1,.62,1.45c1.29-1.54,3.37-2.31,6.21-2.31q7.55,0,7.54,7.06Z"/><path class="cls-2" d="M130.3,162.22q0-10.59,9.33-10.58,5.09,0,7.23,3.19c1.13,1.66,1.7,4.11,1.7,7.37,0,1.29-.73,1.94-2.18,1.94H134.74q.12,4.7,5.47,4.7a16.84,16.84,0,0,0,5.94-1.14,3.57,3.57,0,0,1,.87-.11A1.21,1.21,0,0,1,148.4,169v1.81a15.65,15.65,0,0,1-8.19,2Q130.29,172.8,130.3,162.22Zm13.79-2.08a6.4,6.4,0,0,0-.9-3.17c-.65-.91-1.84-1.37-3.56-1.37a4.65,4.65,0,0,0-3.77,1.37,5.52,5.52,0,0,0-1.1,3.17Z"/><path class="cls-2" d="M171.8,144.48h2.25a2.19,2.19,0,0,1,1.61.63,2.1,2.1,0,0,1,.66,1.53v15.48a6.19,6.19,0,0,0,2,4.87,7.08,7.08,0,0,0,4.93,1.67,24.86,24.86,0,0,0,7.25-1.29,2.38,2.38,0,0,1,1.73.66,2.06,2.06,0,0,1,.64,1.5v1.4a28.51,28.51,0,0,1-9.62,1.87A11.82,11.82,0,0,1,175,170a10.08,10.08,0,0,1-3.17-7.87Z"/><path class="cls-2" d="M194,162.22q0-10.59,9.33-10.58,5.07,0,7.23,3.19c1.13,1.66,1.69,4.11,1.69,7.37,0,1.29-.72,1.94-2.17,1.94H198.48q.12,4.7,5.46,4.7a16.89,16.89,0,0,0,5.95-1.14,3.55,3.55,0,0,1,.86-.11,1.21,1.21,0,0,1,1.39,1.36v1.81a15.66,15.66,0,0,1-8.2,2Q194,172.8,194,162.22Zm13.79-2.08a6.61,6.61,0,0,0-.9-3.17c-.66-.91-1.84-1.37-3.56-1.37A4.64,4.64,0,0,0,199.6,157a5.45,5.45,0,0,0-1.1,3.17Z"/><path class="cls-2" d="M224.22,172.8q-9.22,0-9.23-10.58t9.91-10.58q9.89,0,9.88,10.58v10.35h-2.17a2.09,2.09,0,0,1-1.56-.64,1.92,1.92,0,0,1-.61-1.44Q228.7,172.8,224.22,172.8Zm6.22-10.58a8.31,8.31,0,0,0-1.1-4.75q-1.29-1.87-4.44-1.87t-4.45,1.87a8.22,8.22,0,0,0-1.12,4.75,8.7,8.7,0,0,0,1,4.77c.84,1.23,2.29,1.85,4.37,1.85,2.93,0,4.82-1.25,5.7-3.76Z"/><path class="cls-2" d="M238.78,151.87H241a2.1,2.1,0,0,1,1.54.61,2,2,0,0,1,.63,1.47,6.12,6.12,0,0,1,5.2-2.31,19.63,19.63,0,0,1,4.29.54v1.92c0,1.13-.72,1.69-2.16,1.69a19.14,19.14,0,0,0-2.65-.17q-3.34,0-4.68,3.73v11.14a2,2,0,0,1-.61,1.46,2.18,2.18,0,0,1-1.56.62h-2.18Z"/><path class="cls-2" d="M273.53,172.57h-2.17a2.09,2.09,0,0,1-1.56-.64,1.93,1.93,0,0,1-.62-1.44V159.14q0-3.54-3.71-3.54-4.37,0-5.7,3.75v11.14a1.92,1.92,0,0,1-.61,1.44,2.09,2.09,0,0,1-1.56.64h-2.17v-20.7h2.17a2.12,2.12,0,0,1,1.56.63,1.94,1.94,0,0,1,.61,1.45q2-2.31,6.22-2.31,7.54,0,7.54,7.06Z"/><path class="cls-2" d="M277.82,146.69a2,2,0,0,1,.63-1.46,2.1,2.1,0,0,1,1.54-.62h2.18v2.79a2,2,0,0,1-.64,1.47,2.08,2.08,0,0,1-1.54.61h-2.17Zm0,7.26a1.94,1.94,0,0,1,.61-1.45,2.15,2.15,0,0,1,1.56-.63h2.18v18.62a1.93,1.93,0,0,1-.62,1.44,2.09,2.09,0,0,1-1.56.64h-2.17Z"/><path class="cls-2" d="M304.16,172.57H302a2.12,2.12,0,0,1-1.56-.64,1.92,1.92,0,0,1-.61-1.44V159.14q0-3.54-3.71-3.54c-2.92,0-4.81,1.25-5.7,3.75v11.14a1.92,1.92,0,0,1-.61,1.44,2.12,2.12,0,0,1-1.56.64h-2.18v-20.7h2.18a2.15,2.15,0,0,1,1.56.63,1.94,1.94,0,0,1,.61,1.45q2-2.31,6.21-2.31,7.54,0,7.55,7.06Z"/><path class="cls-2" d="M316.76,172.8q-9.24,0-9.24-10.58t9.91-10.58q9.88,0,9.89,10.58v7.21q0,10.59-9.89,10.58a15.49,15.49,0,0,1-8.21-2.06v-1.78a1.22,1.22,0,0,1,1.38-1.39,3.53,3.53,0,0,1,.87.14,17.07,17.07,0,0,0,6,1.13c2.1,0,3.59-.62,4.45-1.87a8.29,8.29,0,0,0,1.09-4.75A6.6,6.6,0,0,1,316.76,172.8ZM323,162.22a8.31,8.31,0,0,0-1.09-4.75c-.86-1.25-2.35-1.87-4.45-1.87s-3.58.62-4.44,1.87a8.14,8.14,0,0,0-1.12,4.75,8.7,8.7,0,0,0,1,4.77q1.24,1.84,4.37,1.85,4.37,0,5.69-3.76Z"/><path class="cls-2" d="M426.37,137.9c-11.94-.33-21.18-3.22-27.77-8.83a27.4,27.4,0,0,1-5.53-6c-5.88-8.42-8.87-21.14-8.87-38.26s3-29.74,8.87-38.08c6.52-9.37,17.61-14.34,33.3-14.79V0q-77,1.24-77,84.81,0,82,74.14,84.65a4.22,4.22,0,0,1,2.1.63l.76.44Z"/><path class="cls-1" d="M449.64,31.71a15.4,15.4,0,0,0,3.18-1.05,30.4,30.4,0,0,0,5.66-3.46,7.36,7.36,0,0,0,2-3.87c.93-4.29-1.34-8.6-5.71-11a18,18,0,0,0-16.17-.83,11.83,11.83,0,0,0-4.35,3c0,.15,0,.3,0,.45a6.57,6.57,0,0,1-2.47,5.15,14,14,0,0,0-.13,1.86c0,3.38,0,6.76,0,10.14a54.4,54.4,0,0,1,12,2.23A18,18,0,0,1,449.64,31.71Z"/><path class="cls-1" d="M474.45,150.74a24.32,24.32,0,0,0,4.74-.57,31.33,31.33,0,0,0,7.92-3.85,65.82,65.82,0,0,0,11.59-20.21,6.62,6.62,0,0,1-4.09-3.77c-.1.38-.19.75-.29,1.12a25.09,25.09,0,0,1-9.17-1.12c-8.27-2.58-12.64-8.86-11.86-17.13A29.59,29.59,0,0,1,478,92.3c0-.08.1-.16.16-.24.57.24,1.13.5,1.69.77a6.59,6.59,0,0,1,2.1-11.32A8.45,8.45,0,0,0,477,76.08a18.66,18.66,0,0,0-4.6-1.32,13.36,13.36,0,0,0-2.54-.19c.27,3.24.41,6.67.41,10.27a108.22,108.22,0,0,1-1,15.71,59.86,59.86,0,0,1-3.42,14,40.52,40.52,0,0,1-2.95,6.21,18.46,18.46,0,0,1,11.58,10.09,23,23,0,0,1,1.32,11.76C475.45,145.15,474.94,147.72,474.45,150.74Z"/><path class="cls-1" d="M480.91,37.8c-1.15-6.39-6.46-11.84-12.55-12.91,0,0-.1.06-.11.1l-.42,1.38A12.77,12.77,0,0,1,462.29,34a48.83,48.83,0,0,1-5.52,2.6c-1.43.64-2.92,1.17-4.37,1.77a30.87,30.87,0,0,1,8.92,8.41q5.13,7.25,7.37,19c.1.53.19,1.08.28,1.63a19.94,19.94,0,0,1,16.19,4.91,14.47,14.47,0,0,1,5.38,9.86c-1.14,0-2.28-.11-3.42-.19a6.59,6.59,0,0,1-5,12.14c.93.53,1.84,1.1,2.73,1.7a21.1,21.1,0,0,0-3.33,7.87c-1,5.47,1.65,10.09,7,11.36a26.62,26.62,0,0,0,7.15.49,6.6,6.6,0,0,1,4.95-2.25,6,6,0,0,1,1.64.21,122.57,122.57,0,0,0,2.34-16.93c.16-2.26.28-4.55.35-6.89a15.51,15.51,0,0,0-8-6.17c-.57-.22-1.14-.47-1.79-.74.24-.53.44-1,.63-1.4A28,28,0,0,0,498,63.94c-1.24-5.9-4.37-10.32-10.26-12.44a1.39,1.39,0,0,0-2,.69c-.31.47-.63.92-1,1.35a6.12,6.12,0,0,1,.08,1,6.59,6.59,0,1,1-6.6-6.58,6.37,6.37,0,0,1,1,.08l-.27-.36A13,13,0,0,0,480.91,37.8Z"/><path class="cls-1" d="M427.72,8.45a6.66,6.66,0,0,1,1.62.21,19.75,19.75,0,0,1,7.29-4.55c8-2.81,15.8-2.29,23.13,2.16a18.44,18.44,0,0,1,7.69,9.45,2.16,2.16,0,0,0,1.19,1.2c11,2.74,17,10.12,19.62,20.72a49.69,49.69,0,0,1,.55,5.21,1.64,1.64,0,0,0,.75,1.15,23.78,23.78,0,0,1,12.18,9.62Q488.92.35,426.37,0V8.59A6.57,6.57,0,0,1,427.72,8.45Z"/><path class="cls-1" d="M492.2,152.62c-3.88,3.59-8.32,6.45-13.4,5.47-2.69-.52-.71-.52-2.69-.52a25.05,25.05,0,0,0-4.59.88c-5.41,5.12-8.63,6.88-14.17,7.94a40.14,40.14,0,0,1-21.72-1.45,34.48,34.48,0,0,1-5.22-2.63,52.46,52.46,0,0,1,3.74-6.19,7.72,7.72,0,0,0,1.3,1,18.19,18.19,0,0,0,4.1,1.84c4.93,1.48,10,1.36,15,.87a12.45,12.45,0,0,0,10.22-6.37,30.14,30.14,0,0,0,3.06-7.81,18.39,18.39,0,0,0-1.07-12.55,10.1,10.1,0,0,0-9.35-5.49,31.42,31.42,0,0,1-7.13,5.14,10.45,10.45,0,0,0-.86,3.1,38.19,38.19,0,0,0,0,4.29l-.95.24a5,5,0,1,1-6.4,1.55,48.69,48.69,0,0,1-.29-5.9,61.83,61.83,0,0,1-15.43,1.89v34.3c7.87,4,16.81,5.59,26.18,6.34,12.56,1,32.56,0,41.85-10.39S498.72,151.15,492.2,152.62Z"/></g></g></svg>